<?xml version="1.0" standalone="no"?>
<!DOCTYPE svg PUBLIC "-//W3C//DTD SVG 1.1//EN" "http://www.w3.org/Graphics/SVG/1.1/DTD/svg11.dtd">
<!--Generator: Xara Designer (www.xara.com), SVG filter version: 6.6.0.8-->
<svg fill="none" fill-rule="evenodd" stroke="black" stroke-width="0.501" stroke-linejoin="bevel" stroke-miterlimit="10" font-family="Times New Roman" font-size="16" style="font-variant-ligatures:none" xmlns:xlink="http://www.w3.org/1999/xlink" xmlns="http://www.w3.org/2000/svg" version="1.1" overflow="visible" width="1440pt" height="284.11pt" viewBox="0 -284.11 1440 284.11">
 <defs>
  <style type="text/css">@import url('https://themes.googleusercontent.com/fonts/css?family=Open Sans:400,600');</style>
 </defs>
 <g id="Layer 1" transform="scale(1 -1)">
  <g id="Group" fill="#ffffff" fill-rule="nonzero" stroke-linejoin="round" stroke-linecap="round" stroke="none" stroke-width="8.66">
   <g id="Group_1">
    <path d="M 0.002,55.861 L 0.002,218.593 L 106.413,218.593 L 106.413,202.666 L 18.468,202.666 L 18.468,146.806 L 67.865,146.806 C 84.946,146.806 98.18,143.036 107.567,135.496 C 116.954,127.955 121.647,116.645 121.647,101.564 C 121.647,86.484 116.954,75.097 107.567,67.402 C 98.18,59.708 84.946,55.861 67.865,55.861 L 0.002,55.861 Z M 18.468,71.788 L 66.018,71.788 C 90.639,71.788 102.95,81.714 102.95,101.564 C 102.95,121.108 90.639,130.879 66.018,130.879 L 18.468,130.879 L 18.468,71.788 Z" marker-start="none" marker-end="none"/>
    <path d="M 186.288,53.784 C 178.59,53.784 171.704,55.284 165.629,58.285 C 159.547,61.286 154.739,65.402 151.202,70.634 C 147.66,75.866 145.89,81.714 145.893,88.177 C 145.89,96.332 148.006,102.796 152.241,107.566 C 156.47,112.336 163.471,115.76 173.246,117.838 C 183.015,119.915 196.364,120.954 213.294,120.954 L 220.678,120.954 L 220.678,128.109 C 220.678,137.65 218.716,144.536 214.792,148.768 C 210.867,153 204.597,155.116 195.982,155.116 C 189.208,155.116 182.668,154.154 176.362,152.231 C 170.05,150.307 163.587,147.191 156.973,142.882 L 150.51,156.501 C 156.354,160.656 163.471,163.964 171.861,166.426 C 180.245,168.888 188.285,170.12 195.982,170.12 C 210.444,170.12 221.178,166.58 228.183,159.502 C 235.181,152.423 238.682,141.42 238.685,126.494 L 238.685,55.861 L 221.142,55.861 L 221.142,75.25 C 218.215,68.633 213.714,63.401 207.639,59.554 C 201.558,55.707 194.44,53.784 186.288,53.784 Z M 189.289,67.864 C 198.518,67.864 206.059,71.057 211.906,77.443 C 217.754,83.829 220.678,91.947 220.678,101.795 L 220.678,108.72 L 213.525,108.72 C 201.057,108.72 191.247,108.143 184.095,106.989 C 176.936,105.835 171.935,103.834 169.091,100.987 C 166.241,98.141 164.818,94.255 164.821,89.331 C 164.818,83.022 167.011,77.866 171.4,73.866 C 175.782,69.865 181.745,67.864 189.289,67.864 Z" marker-start="none" marker-end="none"/>
    <path d="M 275.197,55.861 L 275.197,168.042 L 293.894,168.042 L 293.894,121.415 L 355.063,121.415 L 355.063,168.042 L 373.76,168.042 L 373.76,55.861 L 355.063,55.861 L 355.063,106.181 L 293.894,106.181 L 293.894,55.861 L 275.197,55.861 Z" marker-start="none" marker-end="none"/>
    <path d="M 410.672,55.861 L 410.672,168.042 L 429.369,168.042 L 429.369,121.185 L 450.374,121.185 L 487.075,168.042 L 507.619,168.042 L 468.609,117.491 C 472.61,115.953 476.227,113.414 479.458,109.874 C 482.69,106.335 486.306,101.257 490.307,94.64 L 513.39,55.861 L 493.308,55.861 L 472.995,89.792 C 469.148,96.409 465.455,100.795 461.916,102.949 C 458.376,105.104 453.375,106.181 446.912,106.181 L 429.369,106.181 L 429.369,55.861 L 410.672,55.861 Z" marker-start="none" marker-end="none"/>
   </g>
  </g>
  <g id="Group_2" fill="#ffffff" fill-rule="nonzero" stroke-linejoin="round" stroke-linecap="round" stroke="none" stroke-width="8.66">
   <g id="Group_3">
    <path d="M 891.023,55.861 L 891.023,218.593 L 918.491,218.593 L 918.491,104.104 L 1005.97,218.593 L 1028.13,218.593 L 1028.13,55.861 L 1000.67,55.861 L 1000.67,170.812 L 912.951,55.861 L 891.023,55.861 Z" marker-start="none" marker-end="none"/>
    <path d="M 1051.92,25.854 L 1051.92,78.482 L 1064.84,78.482 C 1069.31,85.561 1072.5,93.64 1074.42,102.719 C 1076.35,111.798 1077.31,123.108 1077.31,136.65 L 1077.31,168.735 L 1165.25,168.735 L 1165.25,78.482 L 1183.72,78.482 L 1183.72,25.854 L 1159.25,25.854 L 1159.25,55.861 L 1076.38,55.861 L 1076.38,25.854 L 1051.92,25.854 Z M 1090.93,78.482 L 1138.25,78.482 L 1138.25,146.575 L 1102.01,146.575 L 1102.01,129.956 C 1102.01,120.261 1101.05,110.874 1099.12,101.795 C 1097.2,92.716 1094.47,84.945 1090.93,78.482 Z" marker-start="none" marker-end="none"/>
    <path d="M 1260.87,53.553 C 1248.1,53.553 1237.1,55.938 1227.86,60.708 C 1218.63,65.479 1211.51,72.25 1206.51,81.021 C 1201.51,89.792 1199.01,100.18 1199.01,112.182 C 1199.01,123.878 1201.43,134.111 1206.28,142.882 C 1211.13,151.654 1217.82,158.54 1226.36,163.541 C 1234.9,168.542 1244.64,171.043 1255.56,171.043 C 1271.57,171.043 1284.22,165.965 1293.53,155.808 C 1302.84,145.652 1307.5,131.803 1307.5,114.26 L 1307.5,105.719 L 1226.71,105.719 C 1228.86,85.561 1240.41,75.481 1261.33,75.481 C 1267.64,75.481 1273.95,76.443 1280.26,78.367 C 1286.57,80.29 1292.34,83.329 1297.57,87.484 L 1305.65,68.095 C 1300.27,63.632 1293.5,60.093 1285.34,57.477 C 1277.18,54.861 1269.03,53.553 1260.87,53.553 Z M 1256.72,151.423 C 1248.25,151.423 1241.41,148.807 1236.17,143.575 C 1230.94,138.343 1227.79,131.264 1226.71,122.339 L 1283.49,122.339 C 1282.88,131.726 1280.3,138.92 1275.76,143.921 C 1271.22,148.922 1264.87,151.423 1256.72,151.423 Z" marker-start="none" marker-end="none"/>
    <path d="M 1333.37,55.861 L 1333.37,168.735 L 1359.45,168.735 L 1359.45,93.486 L 1416,168.735 L 1440.01,168.735 L 1440.01,55.861 L 1413.92,55.861 L 1413.92,131.11 L 1357.37,55.861 L 1333.37,55.861 Z M 1386.46,183.046 C 1375.22,183.046 1365.99,185.931 1358.76,191.702 C 1351.53,197.472 1346.76,205.282 1344.45,215.13 L 1359.22,220.209 C 1361.84,212.822 1365.34,207.436 1369.72,204.051 C 1374.11,200.665 1379.76,198.973 1386.69,198.973 C 1393.77,198.973 1399.46,200.704 1403.77,204.166 C 1408.08,207.629 1411.69,212.899 1414.62,219.978 L 1428.7,215.13 C 1425.47,204.512 1420.2,196.51 1412.89,191.125 C 1405.58,185.739 1396.77,183.046 1386.46,183.046 Z" marker-start="none" marker-end="none"/>
   </g>
  </g>
  <path d="M 673,13.655 L 716.023,13.425 C 711.745,6.447 705.44,0.132 693.503,-0.32 C 680.21,1.939 675.25,8.023 673,13.655 Z M 663.284,27.852 L 663.284,28.265 C 663.284,31.869 666.224,34.811 669.828,34.811 L 721.627,34.811 C 725.231,34.811 728.171,31.869 728.171,28.265 L 728.171,27.852 C 728.171,24.248 725.231,21.306 721.627,21.306 L 669.828,21.306 C 666.224,21.306 663.284,24.248 663.284,27.852 Z M 663.284,46.777 L 663.284,47.191 C 663.284,50.795 666.224,53.736 669.828,53.736 L 721.627,53.736 C 725.231,53.736 728.171,50.795 728.171,47.191 L 728.171,46.777 C 728.171,43.173 725.231,40.231 721.627,40.231 L 669.828,40.231 C 666.224,40.231 663.284,43.173 663.284,46.777 Z M 728.307,62.195 L 712.533,62.25 L 712.533,62.464 C 716.022,100.719 752.597,132.423 748.279,162.329 C 745.847,187.54 730.882,196.921 714.792,204.86 C 703.412,208.003 692.532,208.686 682.296,206.273 C 654.162,199.949 643.349,179.456 641.138,162.521 C 638.216,129.553 668.801,114.348 677.143,62.377 L 677.156,62.376 L 660.938,62.434 C 660.9,93.009 622.51,124.007 626.24,166.058 C 631.324,189.213 638.302,211.704 678.739,221.873 C 691.801,224.949 705.68,224.084 720.195,220.066 C 740.725,209.945 759.804,197.979 762.908,165.818 C 769.213,126.352 730.863,98.411 728.307,62.195 Z M 587.937,96.297 L 582.661,106.677 C 582.093,107.792 582.536,109.176 583.66,109.753 L 608.093,122.171 C 609.208,122.738 610.592,122.287 611.169,121.162 L 616.436,110.79 C 617.013,109.667 616.561,108.282 615.436,107.715 L 591.013,95.297 C 589.889,94.72 588.505,95.172 587.937,96.297 Z M 800.654,95.307 L 776.23,107.725 C 775.105,108.292 774.654,109.676 775.23,110.801 L 780.497,121.172 C 781.074,122.296 782.458,122.748 783.574,122.181 L 808.007,109.763 C 809.131,109.186 809.573,107.802 809.006,106.686 L 803.729,96.306 C 803.163,95.182 801.779,94.73 800.654,95.307 Z M 599.096,151.612 L 571.693,152.246 C 570.434,152.275 569.435,153.323 569.464,154.582 L 569.733,166.222 C 569.762,167.481 570.818,168.48 572.068,168.451 L 599.471,167.817 C 600.73,167.788 601.73,166.74 601.701,165.481 L 601.432,153.842 C 601.403,152.582 600.355,151.582 599.096,151.612 Z M 790.234,153.852 L 789.965,165.491 C 789.936,166.75 790.936,167.797 792.195,167.827 L 819.598,168.461 C 820.848,168.49 821.905,167.49 821.934,166.231 L 822.203,154.591 C 822.232,153.332 821.232,152.284 819.973,152.256 L 792.57,151.621 C 791.311,151.593 790.263,152.593 790.234,153.852 Z M 606.593,200.622 L 583.17,214.856 C 582.103,215.51 581.757,216.923 582.411,218 L 588.456,227.948 C 589.11,229.014 590.523,229.36 591.6,228.707 L 615.014,214.472 C 616.09,213.819 616.436,212.406 615.782,211.339 L 609.737,201.39 C 609.083,200.314 607.67,199.968 606.593,200.622 Z M 781.93,201.4 L 775.884,211.348 C 775.23,212.415 775.577,213.828 776.653,214.481 L 800.068,228.717 C 801.143,229.371 802.556,229.024 803.21,227.958 L 809.256,218.009 C 809.91,216.933 809.564,215.52 808.496,214.867 L 785.073,200.631 C 783.996,199.977 782.583,200.324 781.93,201.4 Z M 638.389,237.3 L 624.846,261.117 C 624.221,262.213 624.606,263.617 625.702,264.232 L 635.823,269.99 C 636.919,270.614 638.322,270.229 638.937,269.134 L 652.49,245.316 C 653.115,244.22 652.72,242.817 651.634,242.192 L 641.513,236.435 C 640.417,235.82 639.014,236.204 638.389,237.3 Z M 750.153,236.445 L 740.032,242.202 C 738.946,242.827 738.553,244.23 739.178,245.325 L 752.73,269.143 C 753.345,270.24 754.748,270.624 755.843,269.999 L 765.965,264.241 C 767.061,263.626 767.445,262.223 766.82,261.127 L 753.277,237.31 C 752.653,236.213 751.25,235.829 750.153,236.445 Z M 701.605,252.094 L 689.965,252.133 C 688.706,252.133 687.677,253.171 687.677,254.43 L 687.774,281.833 C 687.784,283.092 688.812,284.11 690.071,284.11 L 701.711,284.072 C 702.97,284.063 703.998,283.034 703.989,281.775 L 703.892,254.372 C 703.892,253.112 702.864,252.085 701.605,252.094 Z" fill="#ffffff" stroke-linejoin="miter" stroke="none" marker-start="none" marker-end="none"/>
 </g>
</svg>
