<?xml version="1.0" standalone="no"?>
<!DOCTYPE svg PUBLIC "-//W3C//DTD SVG 1.1//EN" "http://www.w3.org/Graphics/SVG/1.1/DTD/svg11.dtd">
<!--Generator: Xara Designer (www.xara.com), SVG filter version: 6.6.0.8-->
<svg fill="none" fill-rule="evenodd" stroke="black" stroke-width="0.501" stroke-linejoin="bevel" stroke-miterlimit="10" font-family="Times New Roman" font-size="16" style="font-variant-ligatures:none" xmlns:xlink="http://www.w3.org/1999/xlink" xmlns="http://www.w3.org/2000/svg" version="1.1" overflow="visible" width="450pt" height="450pt" viewBox="0 -450 450 450">
 <g id="Layer 1" transform="scale(1 -1)">
  <path d="M 97.413,38.604 L 96.238,42.21 L 93.731,39.588 C 92.98,37.718 90.86,36.812 88.99,37.564 L 63.856,47.644 C 61.986,48.396 61.08,50.517 61.832,52.386 L 62.217,58.227 L 56.917,55.951 C 55.49,54.525 53.197,54.525 51.77,55.951 L 32.612,75.111 C 31.185,76.536 31.185,78.85 32.612,80.256 L 35.253,85.48 L 29.51,85.48 C 27.621,84.728 25.52,85.634 24.767,87.504 L 14.688,112.638 C 13.936,114.508 14.841,116.627 16.711,117.379 L 19.602,119.808 L 16.229,121.157 C 14.225,121.157 12.605,122.796 12.605,124.8 L 12.605,151.899 C 12.605,153.905 14.225,155.543 16.229,155.543 L 19.833,156.7 L 17.212,159.225 C 15.343,159.957 14.456,162.096 15.188,163.946 L 25.269,189.1 C 26.021,190.97 28.14,191.875 30.01,191.123 L 35.85,190.719 L 33.595,196.039 C 32.149,197.465 32.149,199.759 33.595,201.185 L 52.734,220.343 C 54.161,221.77 56.474,221.77 57.881,220.343 L 63.105,217.683 L 63.105,223.447 C 62.353,225.315 63.259,227.436 65.128,228.188 L 90.261,238.269 C 92.131,239.02 94.252,238.114 95.004,236.244 L 96.603,234.318 L 97.394,236.726 C 97.394,238.732 99.032,240.37 101.037,240.37 L 128.136,240.37 C 130.14,240.37 131.779,238.732 131.779,236.726 L 133.108,233.354 L 135.557,236.264 C 136.309,238.133 138.429,239.039 140.298,238.287 L 165.452,228.207 C 167.321,227.455 168.227,225.335 167.456,223.465 L 167.456,217.683 L 172.699,220.363 C 174.106,221.789 176.419,221.789 177.844,220.363 L 196.985,201.204 C 198.411,199.797 198.411,197.465 196.985,196.058 L 194.711,190.758 L 200.569,191.143 C 202.439,191.895 204.559,190.989 205.311,189.119 L 215.41,163.965 C 216.143,162.096 215.237,159.995 213.387,159.244 L 210.746,156.718 L 214.351,155.543 C 216.355,155.543 217.993,153.924 217.993,151.899 L 217.993,124.819 C 217.993,122.796 216.355,121.177 214.351,121.177 L 210.977,119.828 L 213.888,117.379 C 215.758,116.646 216.664,114.508 215.912,112.658 L 205.832,87.504 C 205.08,85.634 202.959,84.728 201.09,85.48 L 195.307,85.48 L 197.987,80.256 C 199.413,78.85 199.413,76.536 197.987,75.111 L 178.828,55.951 C 177.421,54.525 175.088,54.525 173.681,55.951 L 168.381,58.227 L 168.787,52.386 C 169.518,50.517 168.612,48.377 166.742,47.644 L 141.59,37.545 C 139.74,36.812 137.619,37.699 136.867,39.568 L 133.553,43.018 L 131.798,38.604 C 131.798,36.6 130.16,34.962 128.156,34.962 L 101.056,34.962 C 99.05,34.962 97.413,36.6 97.413,38.604 Z M 355.71,37.102 L 355.016,39.203 L 353.55,37.66 C 353.127,36.581 351.893,36.041 350.794,36.484 L 336.145,42.363 C 335.047,42.806 334.507,44.021 334.97,45.119 L 335.181,48.511 L 332.099,47.201 C 331.269,46.373 329.92,46.373 329.092,47.201 L 317.912,58.381 C 317.084,59.189 317.084,60.54 317.912,61.387 L 319.454,64.413 L 316.12,64.413 C 315.02,63.99 313.788,64.509 313.345,65.589 L 307.465,80.256 C 307.042,81.336 307.562,82.569 308.641,83.014 L 310.338,84.419 L 308.371,85.23 C 307.195,85.23 306.251,86.174 306.251,87.331 L 306.251,103.136 C 306.251,104.312 307.195,105.274 308.371,105.274 L 310.472,105.931 L 308.95,107.414 C 307.85,107.838 307.331,109.091 307.774,110.17 L 313.633,124.838 C 314.095,125.898 315.31,126.438 316.408,126.014 L 319.801,125.783 L 318.491,128.867 C 317.662,129.696 317.662,131.044 318.491,131.874 L 329.669,143.034 C 330.479,143.862 331.828,143.862 332.657,143.034 L 335.683,141.491 L 335.683,144.865 C 335.278,145.944 335.799,147.178 336.878,147.621 L 351.546,153.499 C 352.625,153.924 353.859,153.404 354.302,152.323 L 355.228,151.186 L 355.69,152.593 C 355.69,153.769 356.654,154.714 357.811,154.714 L 373.616,154.714 C 374.792,154.714 375.735,153.769 375.735,152.593 L 376.526,150.609 L 377.952,152.323 C 378.376,153.404 379.629,153.942 380.708,153.518 L 395.377,147.621 C 396.455,147.197 396.996,145.944 396.552,144.865 L 396.552,141.491 L 399.598,143.052 C 400.407,143.882 401.756,143.882 402.605,143.052 L 413.744,131.874 C 414.593,131.064 414.593,129.715 413.744,128.887 L 412.434,125.783 L 415.845,126.014 C 416.925,126.457 418.158,125.937 418.601,124.838 L 424.48,110.17 C 424.924,109.091 424.403,107.857 423.305,107.414 L 421.763,105.95 L 423.883,105.274 C 425.059,105.274 426.004,104.312 426.004,103.136 L 426.004,87.35 C 426.004,86.194 425.059,85.23 423.883,85.23 L 421.917,84.439 L 423.613,83.032 C 424.692,82.588 425.232,81.356 424.789,80.256 L 418.91,65.589 C 418.467,64.509 417.233,63.99 416.154,64.413 L 412.781,64.413 L 414.342,61.387 C 415.171,60.54 415.171,59.189 414.342,58.381 L 403.163,47.201 C 402.354,46.373 400.986,46.373 400.156,47.201 L 397.072,48.511 L 397.303,45.119 C 397.746,44.021 397.227,42.787 396.127,42.363 L 381.46,36.465 C 380.362,36.041 379.147,36.581 378.704,37.641 L 376.776,39.665 L 375.754,37.102 C 375.754,35.926 374.792,34.962 373.616,34.962 L 357.83,34.962 C 356.654,34.962 355.71,35.926 355.71,37.102 Z M 393.969,70.812 C 407.153,86.27 405.283,109.534 389.826,122.679 C 374.347,135.863 351.103,133.994 337.939,118.535 C 324.773,103.058 326.624,79.813 342.083,66.649 C 357.56,53.485 380.825,55.354 393.969,70.812 Z M 163.061,96.448 C 185.651,122.969 182.452,162.867 155.93,185.438 C 129.408,208.027 89.53,204.828 66.94,178.305 C 44.351,151.784 47.55,111.886 74.071,89.315 C 100.593,66.726 140.492,69.906 163.061,96.448 Z M 356.866,83.976 C 350.891,89.084 350.159,98.104 355.247,104.08 C 360.374,110.075 369.375,110.827 375.369,105.699 C 381.363,100.592 382.096,91.591 376.988,85.595 C 371.88,79.601 362.88,78.868 356.866,83.976 Z M 372.073,89.778 C 374.868,93.055 374.463,97.989 371.167,100.804 C 367.89,103.579 362.976,103.193 360.182,99.898 C 357.387,96.621 357.791,91.686 361.068,88.891 C 364.345,86.116 369.278,86.501 372.073,89.778 Z M 87.756,105.332 C 69.908,120.521 67.75,147.351 82.957,165.199 C 98.145,183.028 124.976,185.187 142.824,169.998 C 160.672,154.811 162.81,127.98 147.623,110.133 C 132.434,92.285 105.604,90.125 87.756,105.332 Z M 132.993,122.603 C 141.281,132.356 140.105,147.042 130.352,155.369 C 120.599,163.658 105.913,162.482 97.587,152.729 C 89.28,142.957 90.473,128.288 100.226,119.962 C 109.979,111.655 124.667,112.85 132.993,122.603 Z M 369.587,183.8 C 337.457,186.381 313.903,169.073 296.19,138.37 C 275.45,137.868 257.507,140.817 244.457,149.818 C 240.409,199.603 220.73,237.593 187.271,265.157 L 135.384,264.347 L 59.037,263.248 C 40.149,249.583 29.123,233.951 21.895,217.375 L 0,230.386 C 8.5,255.326 26.367,274.061 48.07,290.251 L 61.177,290.675 L 73.84,354.05 L 65.109,354.05 C 56.956,367.831 59.307,379.665 63.354,391.192 L 252.572,392.502 L 262.189,361.471 L 255.637,354.917 L 248.64,354.474 L 277.918,260.087 L 299.775,259.663 L 298.888,290.675 L 308.082,302.047 C 307.446,331.885 306.348,365.865 330.672,362.511 L 330.363,333.504 C 323.636,331.691 325.661,315.213 325.199,302.935 L 333.409,290.309 L 335.452,259.066 L 425.232,247.463 C 443.563,220.825 449.827,184.493 450,143.322 L 442.309,132.76 L 434.292,132.413 C 421.994,164.062 401.698,183.201 369.587,183.8 Z M 247.503,259.451 L 217.204,354.493 L 105.489,354.493 L 101.653,289.211 L 193.418,289.481 C 208.858,270.572 225.202,254.652 247.503,259.451 Z" fill="#fff" stroke-linejoin="miter" stroke="none" marker-start="none" marker-end="none"/>
 </g>
</svg>
