<?xml version="1.0" standalone="no"?>
<!DOCTYPE svg PUBLIC "-//W3C//DTD SVG 1.1//EN" "http://www.w3.org/Graphics/SVG/1.1/DTD/svg11.dtd">
<!--Generator: Xara Designer (www.xara.com), SVG filter version: 6.6.0.8-->
<svg fill="none" fill-rule="evenodd" stroke="black" stroke-width="0.501" stroke-linejoin="bevel" stroke-miterlimit="10" font-family="Times New Roman" font-size="16" style="font-variant-ligatures:none" xmlns:xlink="http://www.w3.org/1999/xlink" xmlns="http://www.w3.org/2000/svg" version="1.1" overflow="visible" width="450pt" height="450pt" viewBox="0 -450 450 450">
 <g id="Layer 1" transform="scale(1 -1)">
  <path d="M 181.028,101.798 L 204.609,104.268 C 223.057,73.136 240.296,40.883 288.754,36.749 C 331.957,37.502 393.992,86.766 420.57,179.741 C 424.038,195.036 426.946,210.856 427.034,228.9 C 427.226,251.535 419.798,266.163 396.182,263.659 C 370.429,262.905 345.166,254.216 316.557,258.193 L 318.555,280.793 C 360.759,276.062 367.942,284.506 401.211,285.996 C 428.26,285.33 445.71,270.614 449.879,236.591 C 451.42,187.432 438.298,145.386 415.611,107.999 C 385.635,54.058 345.726,21.822 294.22,14.902 C 253.645,12.1 214.91,29.828 181.028,101.798 Z M 336.616,77.901 C 306.502,104.864 272.409,116.408 230.502,96.489 C 239.577,117.898 254.031,133.192 281.728,133.333 C 315.962,130.214 333.148,110.698 336.616,77.901 Z M 341.645,176.728 C 332.535,183.122 322.654,192.723 329.907,203.445 C 341.347,214.132 352.664,214.15 363.929,207.86 C 376.981,200.624 385.39,190.428 384.409,174.153 C 378.82,160.733 360.969,167.495 341.645,176.728 Z" fill="#fff" stroke-linecap="round" stroke-linejoin="round" stroke-width="9.934" stroke="none" marker-start="none" marker-end="none"/>
  <path d="M 67.45,179.899 C 41.241,208.894 -38.279,330.635 22.163,369.755 C 41.083,379.321 61.126,382.246 82.149,379.286 C 111.494,381.651 141.802,383.245 173.11,408.281 C 188.684,419.3 203.89,430.723 226.735,434.506 C 250.772,435.401 271.445,417.741 287.107,372.541 C 300.807,321.858 304.626,274.609 294.255,232.334 C 280.222,183.053 258.323,141.654 213.228,123.504 C 174.808,118.914 138.929,108.542 67.45,179.899 Z M 201.315,188.238 C 229.486,202.218 237.212,223.049 236.651,246.63 C 203.05,207.947 162.982,201.167 119.885,210.085 C 138.439,182.632 164.962,173.873 201.315,188.238 Z M 113.928,272.453 C 124.808,274.889 136.651,277.552 134.969,292.705 C 128.452,306.932 117.993,311.258 105.186,309.734 C 90.366,308.017 78.697,301.78 73.406,286.346 C 73.494,271.823 92.555,271.28 113.928,272.453 Z M 205.519,302.324 C 224.248,312.677 240.121,323.26 232.482,335.61 C 219.798,345.895 206.606,344.965 193.133,338.571 C 181.466,333.053 174.896,323.837 176.928,308.332 C 181.448,296.175 195.009,298.627 205.519,302.324 Z" fill="#fff" stroke-linejoin="miter" stroke="none" marker-start="none" marker-end="none"/>
 </g>
</svg>
