<?xml version="1.0" standalone="no"?>
<!DOCTYPE svg PUBLIC "-//W3C//DTD SVG 1.1//EN" "http://www.w3.org/Graphics/SVG/1.1/DTD/svg11.dtd">
<!--Generator: Xara Designer (www.xara.com), SVG filter version: 6.6.0.8-->
<svg fill="none" fill-rule="evenodd" stroke="black" stroke-width="0.501" stroke-linejoin="bevel" stroke-miterlimit="10" font-family="Times New Roman" font-size="16" style="font-variant-ligatures:none" xmlns:xlink="http://www.w3.org/1999/xlink" xmlns="http://www.w3.org/2000/svg" version="1.1" overflow="visible" width="450pt" height="450pt" viewBox="0 -450 450 450">
 <g id="Layer 1" transform="scale(1 -1)">
  <g id="Group" fill="#fff" fill-rule="nonzero" stroke-linejoin="round" stroke-linecap="round" stroke="none" stroke-width="5.513">
   <g id="Group_1">
    <path d="M 316.646,254.055 C 319.834,257.242 321.437,261.012 321.437,265.362 C 321.437,269.712 319.834,273.481 316.646,276.668 C 313.478,279.856 309.709,281.44 305.359,281.44 C 276.571,281.44 249.949,277.29 225.511,268.99 C 201.074,260.711 179.343,249.505 160.337,235.351 C 141.353,221.198 121.646,202.835 101.198,180.242 C 98.031,176.713 96.447,172.965 96.447,168.934 C 96.447,164.584 98.031,160.816 101.198,157.648 C 104.386,154.461 108.154,152.877 112.506,152.877 C 116.535,152.877 120.283,154.461 123.812,157.648 C 128.343,161.657 134.537,167.592 142.396,175.47 C 150.254,183.328 155.867,188.862 159.215,192.03 C 182.149,212.798 204.623,227.533 226.633,236.233 C 248.645,244.933 274.888,249.285 305.359,249.285 C 309.709,249.285 313.478,250.888 316.646,254.055 Z M 450,315.079 C 450,299.182 448.316,283.024 444.968,266.626 C 437.271,229.116 421.834,197.062 398.639,170.438 C 375.464,143.836 345.554,121.383 308.888,103.14 C 273.043,85.057 236.377,76.036 198.888,76.036 C 174.111,76.036 150.174,79.945 127.08,87.824 C 124.553,88.666 117.197,92.174 104.967,98.369 C 92.739,104.563 84.719,107.67 80.87,107.67 C 78.185,107.67 74.877,105.004 70.947,99.632 C 67.018,94.279 63.249,88.425 59.641,82.051 C 56.052,75.695 51.662,69.841 46.47,64.489 C 41.277,59.116 36.245,56.43 31.394,56.43 C 24.196,56.43 18.885,57.913 15.456,60.84 C 12.028,63.767 8.199,68.739 4.029,75.775 C 3.688,76.457 3.187,77.38 2.526,78.542 C 1.865,79.705 1.383,80.567 1.143,81.068 C 0.882,81.569 0.622,82.351 0.381,83.434 C 0.141,84.536 0,85.658 0,86.821 C 0,92.695 2.606,98.849 7.798,105.284 C 12.971,111.721 18.684,117.213 24.878,121.723 C 31.073,126.254 36.767,130.925 41.939,135.777 C 47.151,140.648 49.737,144.657 49.737,147.845 C 49.737,148.507 48.555,151.694 46.208,157.388 C 43.863,163.081 42.54,166.77 42.179,168.433 C 40.696,176.974 39.934,185.694 39.934,194.555 C 39.934,213.801 43.582,232.224 50.86,249.806 C 58.137,267.387 68.101,282.823 80.73,296.114 C 93.38,309.426 107.654,321.073 123.571,331.017 C 139.449,341 156.528,348.979 174.792,355.013 C 183.974,358.02 196.123,360.166 211.197,361.408 C 226.273,362.671 241.289,363.413 256.263,363.674 C 271.239,363.934 286.194,364.435 301.09,365.198 C 315.984,365.939 329.676,367.944 342.146,371.211 C 354.615,374.479 364.118,379.21 370.654,385.405 C 372.337,387.069 374.803,389.535 378.05,392.802 C 381.318,396.07 383.784,398.415 385.468,399.838 C 387.132,401.263 389.398,402.926 392.244,404.85 C 395.09,406.775 398.138,408.118 401.406,408.881 C 404.654,409.622 408.322,410.003 412.332,410.003 C 418.867,410.003 424.761,406.154 430.033,398.435 C 435.305,390.757 439.275,381.375 441.962,370.329 C 444.647,359.284 446.653,348.899 447.995,339.196 C 449.318,329.473 450,321.455 450,315.079 Z" marker-start="none" marker-end="none"/>
   </g>
  </g>
 </g>
</svg>
