<?xml version="1.0" standalone="no"?>
<!DOCTYPE svg PUBLIC "-//W3C//DTD SVG 1.1//EN" "http://www.w3.org/Graphics/SVG/1.1/DTD/svg11.dtd">
<!--Generator: Xara Designer (www.xara.com), SVG filter version: 6.6.0.8-->
<svg fill="none" fill-rule="evenodd" stroke="black" stroke-width="0.501" stroke-linejoin="bevel" stroke-miterlimit="10" font-family="Times New Roman" font-size="16" style="font-variant-ligatures:none" xmlns:xlink="http://www.w3.org/1999/xlink" xmlns="http://www.w3.org/2000/svg" version="1.1" overflow="visible" width="450pt" height="450pt" viewBox="0 -450 450 450">
 <g id="Layer 1" transform="scale(1 -1)">
  <path d="M 313.858,23.25 L 313.858,55.133 C 310.335,72.347 302.118,81.562 288.513,81.631 L 167.128,82.781 C 151.287,82.851 142.919,76.023 140.242,63.96 L 138.344,23.944 L 120.268,24.012 C 119.404,55.032 120.25,83.799 136.786,91.998 C 137.581,128.254 162.74,148.668 224.356,145.398 C 266.455,148.176 305.608,145.975 315.011,93.15 C 330.392,86.103 333.595,59.03 331.528,23.25 L 313.858,23.25 Z M 106.901,77.479 L 42.234,77.937 C 33.358,78.954 25.667,80.969 33.087,95.335 L 64.885,154.749 C 67.037,148.701 71.036,143.246 76.745,138.384 L 54.078,96.979 L 116.49,96.979 L 106.901,77.479 Z M 343.099,77.497 L 333.493,96.997 L 395.906,96.997 L 373.255,138.4 C 378.948,143.264 382.963,148.701 385.115,154.767 L 416.913,95.335 C 424.317,80.987 416.641,78.97 407.748,77.937 L 343.099,77.497 Z M 43.422,143.788 L 0,144.246 C 2.744,200.644 5.625,256.907 52.333,260.905 C 74.762,263.903 94.262,230.207 112.814,185.041 L 143.545,182.161 L 136.006,199.153 C 134.515,207.116 143.359,208.76 146.425,205.201 L 156.268,180.856 C 174.074,177.299 170.957,155.037 156.556,148.906 L 99.243,149.041 C 80.489,148.6 69.037,172.267 57.685,197.967 L 46.132,195.257 L 57.991,169.149 L 43.422,143.788 Z M 406.562,143.806 L 392.009,169.167 L 403.867,195.274 L 392.297,197.967 C 380.963,172.284 369.493,148.6 350.739,149.057 L 293.444,148.906 C 279.027,155.055 275.925,177.315 293.732,180.874 L 337.17,185.058 C 355.738,230.207 375.22,263.903 397.667,260.923 C 444.375,256.923 447.255,200.644 450,144.246 L 406.562,143.806 Z M 188.982,175.655 C 170.059,195.088 170.448,226.277 189.88,245.2 C 209.313,264.141 240.501,263.751 259.425,244.302 C 278.366,224.871 277.976,193.698 258.527,174.757 C 239.095,155.816 207.923,156.223 188.982,175.655 Z M 116.049,212.215 L 104.53,233.731 L 115.287,248.708 C 117.27,253.281 120.149,255.043 123.724,254.467 L 157.521,255.619 C 162.435,286.385 146.07,326.96 202.976,328.84 L 225.898,311.713 L 248.176,328.604 C 301.541,324.216 293.173,287.435 295.037,256.009 L 328.834,254.467 C 333.188,254.688 337.542,246.301 341.897,238.339 L 332.68,218.365 L 322.685,237.576 L 285.43,237.187 C 250.869,292.501 188.931,280.625 166.365,235.645 L 127.96,236.814 L 116.049,212.215 Z M 57.076,276.372 C 40.965,292.907 41.32,319.421 57.838,335.532 C 74.373,351.643 100.887,351.288 116.998,334.771 C 133.092,318.235 132.754,291.722 116.219,275.61 C 99.701,259.499 73.188,259.854 57.076,276.372 Z M 348.215,284.064 C 332.121,300.599 332.46,327.113 348.994,343.206 C 365.513,359.317 392.025,358.98 408.137,342.445 C 424.25,325.909 423.893,299.396 407.375,283.302 C 390.84,267.191 364.326,267.53 348.215,284.064 Z M 199.503,347.392 C 186.238,361.013 186.525,382.867 200.146,396.148 C 213.768,409.414 235.622,409.126 248.904,395.505 C 262.186,381.885 261.882,360.029 248.261,346.748 C 234.639,333.466 212.785,333.771 199.503,347.392 Z" fill="#fff" stroke-linejoin="miter" stroke="none" marker-start="none" marker-end="none"/>
 </g>
</svg>
