<?xml version="1.0" standalone="no"?>
<!DOCTYPE svg PUBLIC "-//W3C//DTD SVG 1.1//EN" "http://www.w3.org/Graphics/SVG/1.1/DTD/svg11.dtd">
<!--Generator: Xara Designer (www.xara.com), SVG filter version: 6.6.0.8-->
<svg fill="none" fill-rule="evenodd" stroke="black" stroke-width="0.501" stroke-linejoin="bevel" stroke-miterlimit="10" font-family="Times New Roman" font-size="16" style="font-variant-ligatures:none" xmlns:xlink="http://www.w3.org/1999/xlink" xmlns="http://www.w3.org/2000/svg" version="1.1" overflow="visible" width="450pt" height="450pt" viewBox="0 -450 450 450">
 <g id="Layer 1" transform="scale(1 -1)">
  <g id="Group" fill="#fff" fill-rule="nonzero" stroke-linejoin="round" stroke-linecap="round" stroke="none" stroke-width="5.514">
   <g id="Group_1">
    <path d="M 141.351,120.55 L 141.351,104.471 C 141.351,102.306 140.569,100.401 138.965,98.817 C 137.381,97.213 135.496,96.432 133.311,96.432 L 117.232,96.432 C 115.068,96.432 113.203,97.213 111.579,98.817 C 110.015,100.401 109.213,102.306 109.213,104.471 L 109.213,120.55 C 109.213,122.714 110.015,124.579 111.579,126.183 C 113.203,127.767 115.068,128.569 117.232,128.569 L 133.311,128.569 C 135.496,128.569 137.381,127.767 138.965,126.183 C 140.569,124.579 141.351,122.714 141.351,120.55 Z M 141.351,184.824 L 141.351,168.745 C 141.351,166.56 140.569,164.695 138.965,163.091 C 137.381,161.508 135.496,160.726 133.311,160.726 L 117.232,160.726 C 115.068,160.726 113.203,161.508 111.579,163.091 C 110.015,164.695 109.213,166.56 109.213,168.745 L 109.213,184.824 C 109.213,186.99 110.015,188.894 111.579,190.477 C 113.203,192.061 115.068,192.863 117.232,192.863 L 133.311,192.863 C 135.496,192.863 137.381,192.061 138.965,190.477 C 140.569,188.894 141.351,186.99 141.351,184.824 Z M 205.645,184.824 L 205.645,168.745 C 205.645,166.56 204.843,164.695 203.259,163.091 C 201.656,161.508 199.79,160.726 197.606,160.726 L 181.547,160.726 C 179.361,160.726 177.457,161.508 175.893,163.091 C 174.29,164.695 173.488,166.56 173.488,168.745 L 173.488,184.824 C 173.488,186.99 174.29,188.894 175.893,190.477 C 177.457,192.061 179.361,192.863 181.547,192.863 L 197.606,192.863 C 199.79,192.863 201.656,192.061 203.259,190.477 C 204.843,188.894 205.645,186.99 205.645,184.824 Z M 141.351,249.118 L 141.351,233.039 C 141.351,230.875 140.569,228.97 138.965,227.386 C 137.381,225.802 135.496,225 133.311,225 L 117.232,225 C 115.068,225 113.203,225.802 111.579,227.386 C 110.015,228.97 109.213,230.875 109.213,233.039 L 109.213,249.118 C 109.213,251.303 110.015,253.168 111.579,254.772 C 113.203,256.335 115.068,257.137 117.232,257.137 L 133.311,257.137 C 135.496,257.137 137.381,256.335 138.965,254.772 C 140.569,253.168 141.351,251.303 141.351,249.118 Z M 334.214,120.55 L 334.214,104.471 C 334.214,102.306 333.412,100.401 331.828,98.817 C 330.224,97.213 328.359,96.432 326.195,96.432 L 310.116,96.432 C 307.931,96.432 306.046,97.213 304.462,98.817 C 302.878,100.401 302.056,102.306 302.056,104.471 L 302.056,120.55 C 302.056,122.714 302.878,124.579 304.462,126.183 C 306.046,127.767 307.931,128.569 310.116,128.569 L 326.195,128.569 C 328.359,128.569 330.224,127.767 331.828,126.183 C 333.412,124.579 334.214,122.714 334.214,120.55 Z M 269.939,184.824 L 269.939,168.745 C 269.939,166.56 269.137,164.695 267.534,163.091 C 265.97,161.508 264.065,160.726 261.88,160.726 L 245.821,160.726 C 243.637,160.726 241.771,161.508 240.168,163.091 C 238.584,164.695 237.782,166.56 237.782,168.745 L 237.782,184.824 C 237.782,186.99 238.584,188.894 240.168,190.477 C 241.771,192.061 243.637,192.863 245.821,192.863 L 261.88,192.863 C 264.065,192.863 265.97,192.061 267.534,190.477 C 269.137,188.894 269.939,186.99 269.939,184.824 Z M 205.645,249.118 L 205.645,233.039 C 205.645,230.875 204.843,228.97 203.259,227.386 C 201.656,225.802 199.79,225 197.606,225 L 181.547,225 C 179.361,225 177.457,225.802 175.893,227.386 C 174.29,228.97 173.488,230.875 173.488,233.039 L 173.488,249.118 C 173.488,251.303 174.29,253.168 175.893,254.772 C 177.457,256.335 179.361,257.137 181.547,257.137 L 197.606,257.137 C 199.79,257.137 201.656,256.335 203.259,254.772 C 204.843,253.168 205.645,251.303 205.645,249.118 Z M 141.351,313.393 L 141.351,297.314 C 141.351,295.149 140.569,293.264 138.965,291.68 C 137.381,290.076 135.496,289.295 133.311,289.295 L 117.232,289.295 C 115.068,289.295 113.203,290.076 111.579,291.68 C 110.015,293.264 109.213,295.149 109.213,297.314 L 109.213,313.393 C 109.213,315.577 110.015,317.462 111.579,319.046 C 113.203,320.65 115.068,321.432 117.232,321.432 L 133.311,321.432 C 135.496,321.432 137.381,320.65 138.965,319.046 C 140.569,317.462 141.351,315.577 141.351,313.393 Z M 334.214,184.824 L 334.214,168.745 C 334.214,166.56 333.412,164.695 331.828,163.091 C 330.224,161.508 328.359,160.726 326.195,160.726 L 310.116,160.726 C 307.931,160.726 306.046,161.508 304.462,163.091 C 302.878,164.695 302.056,166.56 302.056,168.745 L 302.056,184.824 C 302.056,186.99 302.878,188.894 304.462,190.477 C 306.046,192.061 307.931,192.863 310.116,192.863 L 326.195,192.863 C 328.359,192.863 330.224,192.061 331.828,190.477 C 333.412,188.894 334.214,186.99 334.214,184.824 Z M 269.939,249.118 L 269.939,233.039 C 269.939,230.875 269.137,228.97 267.534,227.386 C 265.97,225.802 264.065,225 261.88,225 L 245.821,225 C 243.637,225 241.771,225.802 240.168,227.386 C 238.584,228.97 237.782,230.875 237.782,233.039 L 237.782,249.118 C 237.782,251.303 238.584,253.168 240.168,254.772 C 241.771,256.335 243.637,257.137 245.821,257.137 L 261.88,257.137 C 264.065,257.137 265.97,256.335 267.534,254.772 C 269.137,253.168 269.939,251.303 269.939,249.118 Z M 205.645,313.393 L 205.645,297.314 C 205.645,295.149 204.843,293.264 203.259,291.68 C 201.656,290.076 199.79,289.295 197.606,289.295 L 181.547,289.295 C 179.361,289.295 177.457,290.076 175.893,291.68 C 174.29,293.264 173.488,295.149 173.488,297.314 L 173.488,313.393 C 173.488,315.577 174.29,317.462 175.893,319.046 C 177.457,320.65 179.361,321.432 181.547,321.432 L 197.606,321.432 C 199.79,321.432 201.656,320.65 203.259,319.046 C 204.843,317.462 205.645,315.577 205.645,313.393 Z M 141.351,377.687 L 141.351,361.608 C 141.351,359.442 140.569,357.538 138.965,355.954 C 137.381,354.371 135.496,353.569 133.311,353.569 L 117.232,353.569 C 115.068,353.569 113.203,354.371 111.579,355.954 C 110.015,357.538 109.213,359.442 109.213,361.608 L 109.213,377.687 C 109.213,379.872 110.015,381.737 111.579,383.341 C 113.203,384.924 115.068,385.726 117.232,385.726 L 133.311,385.726 C 135.496,385.726 137.381,384.924 138.965,383.341 C 140.569,381.737 141.351,379.872 141.351,377.687 Z M 334.214,249.118 L 334.214,233.039 C 334.214,230.875 333.412,228.97 331.828,227.386 C 330.224,225.802 328.359,225 326.195,225 L 310.116,225 C 307.931,225 306.046,225.802 304.462,227.386 C 302.878,228.97 302.056,230.875 302.056,233.039 L 302.056,249.118 C 302.056,251.303 302.878,253.168 304.462,254.772 C 306.046,256.335 307.931,257.137 310.116,257.137 L 326.195,257.137 C 328.359,257.137 330.224,256.335 331.828,254.772 C 333.412,253.168 334.214,251.303 334.214,249.118 Z M 269.939,313.393 L 269.939,297.314 C 269.939,295.149 269.137,293.264 267.534,291.68 C 265.97,290.076 264.065,289.295 261.88,289.295 L 245.821,289.295 C 243.637,289.295 241.771,290.076 240.168,291.68 C 238.584,293.264 237.782,295.149 237.782,297.314 L 237.782,313.393 C 237.782,315.577 238.584,317.462 240.168,319.046 C 241.771,320.65 243.637,321.432 245.821,321.432 L 261.88,321.432 C 264.065,321.432 265.97,320.65 267.534,319.046 C 269.137,317.462 269.939,315.577 269.939,313.393 Z M 205.645,377.687 L 205.645,361.608 C 205.645,359.442 204.843,357.538 203.259,355.954 C 201.656,354.371 199.79,353.569 197.606,353.569 L 181.547,353.569 C 179.361,353.569 177.457,354.371 175.893,355.954 C 174.29,357.538 173.488,359.442 173.488,361.608 L 173.488,377.687 C 173.488,379.872 174.29,381.737 175.893,383.341 C 177.457,384.924 179.361,385.726 181.547,385.726 L 197.606,385.726 C 199.79,385.726 201.656,384.924 203.259,383.341 C 204.843,381.737 205.645,379.872 205.645,377.687 Z M 334.214,313.393 L 334.214,297.314 C 334.214,295.149 333.412,293.264 331.828,291.68 C 330.224,290.076 328.359,289.295 326.195,289.295 L 310.116,289.295 C 307.931,289.295 306.046,290.076 304.462,291.68 C 302.878,293.264 302.056,295.149 302.056,297.314 L 302.056,313.393 C 302.056,315.577 302.878,317.462 304.462,319.046 C 306.046,320.65 307.931,321.432 310.116,321.432 L 326.195,321.432 C 328.359,321.432 330.224,320.65 331.828,319.046 C 333.412,317.462 334.214,315.577 334.214,313.393 Z M 269.939,377.687 L 269.939,361.608 C 269.939,359.442 269.137,357.538 267.534,355.954 C 265.97,354.371 264.065,353.569 261.88,353.569 L 245.821,353.569 C 243.637,353.569 241.771,354.371 240.168,355.954 C 238.584,357.538 237.782,359.442 237.782,361.608 L 237.782,377.687 C 237.782,379.872 238.584,381.737 240.168,383.341 C 241.771,384.924 243.637,385.726 245.821,385.726 L 261.88,385.726 C 264.065,385.726 265.97,384.924 267.534,383.341 C 269.137,381.737 269.939,379.872 269.939,377.687 Z M 334.214,377.687 L 334.214,361.608 C 334.214,359.442 333.412,357.538 331.828,355.954 C 330.224,354.371 328.359,353.569 326.195,353.569 L 310.116,353.569 C 307.931,353.569 306.046,354.371 304.462,355.954 C 302.878,357.538 302.056,359.442 302.056,361.608 L 302.056,377.687 C 302.056,379.872 302.878,381.737 304.462,383.341 C 306.046,384.924 307.931,385.726 310.116,385.726 L 326.195,385.726 C 328.359,385.726 330.224,384.924 331.828,383.341 C 333.412,381.737 334.214,379.872 334.214,377.687 Z M 269.939,32.137 L 366.371,32.137 L 366.371,417.863 L 77.076,417.863 L 77.076,32.137 L 173.488,32.137 L 173.488,88.392 C 173.488,90.577 174.29,92.442 175.893,94.046 C 177.457,95.63 179.361,96.432 181.547,96.432 L 261.88,96.432 C 264.065,96.432 265.97,95.63 267.534,94.046 C 269.137,92.442 269.939,90.577 269.939,88.392 L 269.939,32.137 Z M 398.508,433.941 L 398.508,16.078 C 398.508,11.728 396.904,7.96 393.737,4.771 C 390.548,1.584 386.78,0 382.429,0 L 60.997,0 C 56.647,0 52.879,1.584 49.69,4.771 C 46.523,7.96 44.919,11.728 44.919,16.078 L 44.919,433.941 C 44.919,438.293 46.523,442.062 49.69,445.248 C 52.879,448.417 56.647,450 60.997,450 L 382.429,450 C 386.78,450 390.548,448.417 393.737,445.248 C 396.904,442.062 398.508,438.293 398.508,433.941 Z" marker-start="none" marker-end="none"/>
   </g>
  </g>
 </g>
</svg>
