<?xml version="1.0" standalone="no"?>
<!DOCTYPE svg PUBLIC "-//W3C//DTD SVG 1.1//EN" "http://www.w3.org/Graphics/SVG/1.1/DTD/svg11.dtd">
<!--Generator: Xara Designer (www.xara.com), SVG filter version: 6.6.0.8-->
<svg fill="none" fill-rule="evenodd" stroke="black" stroke-width="0.501" stroke-linejoin="bevel" stroke-miterlimit="10" font-family="Times New Roman" font-size="16" style="font-variant-ligatures:none" xmlns:xlink="http://www.w3.org/1999/xlink" xmlns="http://www.w3.org/2000/svg" version="1.1" overflow="visible" width="450pt" height="450pt" viewBox="0 -450 450 450">
 <g id="Layer 1" transform="scale(1 -1)">
  <g id="Group" fill="#fff" stroke-linejoin="miter" stroke="none">
   <path d="M 21.189,280.446 C 1.582,283.526 4.259,299.716 20.06,302.003 L 224.728,370.239 C 227.363,371.153 230.859,370.67 235.015,369.082 L 440.624,300.484 C 451.342,296.395 454.422,287.909 441.579,282.382 L 232.729,213.017 C 228.762,211.739 224.592,211.915 220.155,214.16 L 109.248,250.173 L 229.299,297.054 C 244.724,302.594 235.216,322.391 222.253,317.066 L 110.202,273.426 C 77.107,263.931 62.797,239.563 63.322,203.482 C 75.52,198.533 79.514,174.515 63.51,166.136 C 66.375,128.792 75.479,89.374 42.545,63.997 C 36.318,61.967 30.684,61.604 25.977,63.621 C 12.717,69.336 -2.816,74.998 0.439,81.346 C 20.032,101.235 36.023,125.792 41.214,164.24 C 21.647,173.856 23.112,200.443 41.779,205.768 C 42.761,228.119 48.247,248.722 60.835,266.567 L 21.189,280.446 Z" marker-start="none" marker-end="none"/>
   <path d="M 91.469,233.189 L 217.694,191.11 C 224.243,186.807 231.909,186.578 240.878,191.11 L 371.057,233.484 C 370.183,204.181 375.656,168.517 361.912,152.083 C 326.287,122.888 276.798,112.236 217.088,115.182 C 167.25,117.36 122.978,125.752 94.521,151.774 C 99.538,167.777 106.854,183.001 87.206,207.57 L 91.469,233.189 Z" marker-start="none" marker-end="none"/>
  </g>
 </g>
</svg>
