<?xml version="1.0" standalone="no"?>
<!DOCTYPE svg PUBLIC "-//W3C//DTD SVG 1.1//EN" "http://www.w3.org/Graphics/SVG/1.1/DTD/svg11.dtd">
<!--Generator: Xara Designer (www.xara.com), SVG filter version: 6.6.0.8-->
<svg fill="none" fill-rule="evenodd" stroke="black" stroke-width="0.501" stroke-linejoin="bevel" stroke-miterlimit="10" font-family="Times New Roman" font-size="16" style="font-variant-ligatures:none" xmlns:xlink="http://www.w3.org/1999/xlink" xmlns="http://www.w3.org/2000/svg" version="1.1" overflow="visible" width="450pt" height="450pt" viewBox="0 -450 450 450">
 <g id="Layer 1" transform="scale(1 -1)">
  <path d="M 70.845,23.618 L 70.845,192.48 L 70.862,292.79 L 66.528,292.79 L 66.528,167.106 C 47.726,168.638 38.246,177.978 36.681,192.17 L 36.681,291.997 C 36.681,304.125 41.292,314.792 50.546,324.063 C 59.802,333.3 70.554,337.946 82.665,337.946 C 105.474,330.567 128.285,330.049 151.096,337.946 C 163.207,337.946 173.889,333.3 183.145,324.063 C 192.399,314.792 197.027,304.125 197.027,291.997 L 197.027,195.37 C 196.546,173.489 183.248,168.43 167.146,167.141 L 167.146,292.79 L 162.811,292.79 L 162.811,23.618 C 162.811,10.597 153.47,-0.001 141.944,-0.001 L 141.926,-0.001 C 130.4,-0.001 121.043,10.597 121.043,23.618 L 121.043,145.328 L 112.631,145.328 L 112.631,23.618 C 112.631,10.597 103.256,-0.001 91.747,-0.001 L 91.73,-0.001 C 80.204,-0.001 70.845,10.597 70.845,23.618 Z M 287.926,44.847 L 287.926,132.683 L 252.729,134.972 L 268.883,247.942 L 247.276,200.307 C 242.441,190.038 231.741,184.618 223.415,188.334 L 223.415,188.266 C 215.073,191.964 212.08,203.455 216.845,213.743 L 266.164,322.033 C 270.912,332.337 281.613,337.808 289.939,334.093 L 290.025,334.161 C 291.9,333.249 293.516,332.011 294.824,330.445 C 311.906,320.468 330.675,319.815 351.06,329.275 C 352.504,331.357 354.466,333.043 356.875,334.161 L 356.926,334.093 C 365.269,337.808 375.952,332.337 380.717,322.033 L 430.038,213.743 C 434.786,203.455 431.792,191.964 423.449,188.266 L 423.449,188.334 C 415.105,184.618 404.44,190.038 399.605,200.307 L 372.305,260.207 L 387.219,132.683 L 356.341,132.683 L 356.341,44.141 C 355.618,26.285 356.788,6.863 337.504,2.115 L 306.229,2.115 C 284.864,7.964 288.77,28.641 287.926,44.847 Z M 237.695,337.293 C 236.319,343.863 251.164,351.416 255.739,346.53 C 258.337,343.725 253.073,338.324 249.685,336.57 C 246.158,334.746 238.469,333.37 237.695,337.293 Z M 395.615,340.337 C 392.243,342.109 386.962,347.528 389.56,350.297 C 394.118,355.2 408.981,347.648 407.623,341.059 C 406.849,337.155 399.141,338.513 395.615,340.337 Z M 290.076,356.06 C 281.148,364.988 276.659,375.792 276.659,388.625 C 276.659,401.458 281.148,412.142 290.076,420.76 C 298.936,429.293 309.825,433.524 322.659,433.524 C 335.491,433.524 346.38,429.293 355.31,420.76 C 364.151,412.142 368.659,401.458 368.659,388.625 C 368.659,375.792 364.151,364.988 355.31,356.06 C 346.38,347.132 335.491,342.676 322.659,342.676 C 309.825,342.676 298.936,347.132 290.076,356.06 Z M 257.099,350.813 C 253.4,355.957 254.552,363.166 259.679,366.863 C 264.823,370.58 272.032,369.409 275.747,364.283 C 279.427,359.139 278.275,351.932 273.149,348.233 C 268.023,344.534 260.798,345.67 257.099,350.813 Z M 372.151,352.018 C 367.024,355.717 365.854,362.907 369.553,368.068 C 373.268,373.194 380.477,374.347 385.603,370.631 C 390.764,366.949 391.899,359.742 388.201,354.598 C 384.502,349.455 377.277,348.303 372.151,352.018 Z M 83.644,364.111 C 74.733,373.022 70.278,383.843 70.278,396.694 C 70.278,409.526 74.733,420.209 83.644,428.794 C 84.521,429.619 85.398,430.41 86.294,431.168 C 82.716,431.252 79.687,431.907 80.909,433.489 C 82.336,435.399 87.429,437.034 92.556,437.843 C 89.286,441.42 85.09,447.699 88.083,447.647 C 89.699,447.596 92.229,446.134 94.809,444.018 C 95.205,446.822 96.392,449.04 98.834,449.212 C 102.017,449.401 105.01,446.77 107.092,443.174 C 107.952,447.303 109.448,451.311 110.945,449.59 C 112.081,448.249 112.613,445.084 112.699,441.455 C 113.87,441.523 115.073,441.575 116.295,441.575 C 129.129,441.575 139.932,437.344 148.876,428.794 C 157.787,420.209 162.226,409.526 162.226,396.694 C 162.226,383.843 157.787,373.022 148.876,364.111 C 139.932,355.183 129.129,350.761 116.295,350.761 C 103.445,350.761 92.572,355.183 83.644,364.111 Z" fill="#ffffff" stroke-linecap="round" stroke-linejoin="miter" stroke-width="6.71" stroke="none" marker-start="none" marker-end="none"/>
 </g>
</svg>
