<?xml version="1.0" standalone="no"?>
<!DOCTYPE svg PUBLIC "-//W3C//DTD SVG 1.1//EN" "http://www.w3.org/Graphics/SVG/1.1/DTD/svg11.dtd">
<!--Generator: Xara Designer (www.xara.com), SVG filter version: 6.6.0.8-->
<svg fill="none" fill-rule="evenodd" stroke="black" stroke-width="0.501" stroke-linejoin="bevel" stroke-miterlimit="10" font-family="Times New Roman" font-size="16" style="font-variant-ligatures:none" xmlns:xlink="http://www.w3.org/1999/xlink" xmlns="http://www.w3.org/2000/svg" version="1.1" overflow="visible" width="450pt" height="450pt" viewBox="0 -450 450 450">
 <g id="Layer 1" transform="scale(1 -1)">
  <g id="Group" fill="#fff" fill-rule="nonzero" stroke-linejoin="miter" stroke-linecap="round" stroke="none" stroke-width="7.819">
   <g id="Group_1">
    <path d="M 309.824,75.426 C 322.414,62.835 337.791,56.54 355.955,56.54 C 374.118,56.54 389.654,62.835 402.546,75.426 C 415.437,88.036 421.872,103.412 421.872,121.577 C 421.872,139.74 415.437,155.256 402.546,168.169 C 389.654,181.059 374.118,187.494 355.955,187.494 C 337.791,187.494 322.414,181.059 309.824,168.169 C 297.214,155.256 290.918,139.74 290.918,121.577 C 290.918,103.412 297.214,88.036 309.824,75.426 Z M 289.595,188.376 C 307.457,206.54 329.591,215.622 355.955,215.622 C 382.337,215.622 404.591,206.54 422.754,188.376 C 440.918,170.213 450,147.939 450,121.577 C 450,95.213 440.918,73.079 422.754,55.217 C 404.591,37.354 382.337,28.412 355.955,28.412 C 329.591,28.412 307.457,37.354 289.595,55.217 C 271.732,73.079 262.791,95.213 262.791,121.577 C 262.791,147.939 271.732,170.213 289.595,188.376 Z M 202.145,243.75 L 243.444,200.665 L 243.444,84.667 L 206.536,84.667 L 206.536,177.831 L 145.89,230.557 C 138.873,235.269 135.345,244.05 135.345,256.921 C 135.345,267.466 138.873,276.267 145.89,283.305 L 198.617,336.031 C 203.328,343.088 212.109,346.577 225,346.577 C 236.127,346.577 246.091,343.088 254.871,336.031 L 290.918,300.004 C 309.663,281.239 331.937,271.877 357.698,271.877 L 357.698,234.086 C 320.79,234.086 289.154,247.257 262.791,273.621 L 247.855,288.576 L 202.145,243.75 Z M 47.454,75.426 C 60.345,62.835 75.862,56.54 94.025,56.54 C 112.209,56.54 127.586,62.835 140.176,75.426 C 152.786,88.036 159.082,103.412 159.082,121.577 C 159.082,139.74 152.786,155.256 140.176,168.169 C 127.586,181.059 112.209,187.494 94.025,187.494 C 75.862,187.494 60.345,181.059 47.454,168.169 C 34.563,155.256 28.107,139.74 28.107,121.577 C 28.107,103.412 34.563,88.036 47.454,75.426 Z M 27.226,188.376 C 45.409,206.54 67.663,215.622 94.025,215.622 C 120.409,215.622 142.543,206.54 160.405,188.376 C 178.268,170.213 187.19,147.939 187.19,121.577 C 187.19,95.213 178.268,73.079 160.405,55.217 C 142.543,37.354 120.409,28.412 94.025,28.412 C 67.663,28.412 45.409,37.354 27.226,55.217 C 9.062,73.079 0,95.213 0,121.577 C 0,147.939 9.062,170.213 27.226,188.376 Z M 316.84,348.781 C 309.503,341.464 300.882,337.795 290.918,337.795 C 280.955,337.795 272.173,341.464 264.535,348.781 C 256.917,356.099 253.128,364.74 253.128,374.703 C 253.128,384.667 256.917,393.469 264.535,401.067 C 272.173,408.705 280.955,412.494 290.918,412.494 C 300.882,412.494 309.503,408.705 316.84,401.067 C 324.158,393.469 327.827,384.667 327.827,374.703 C 327.827,364.74 324.158,356.099 316.84,348.781 Z" marker-start="none" marker-end="none"/>
   </g>
  </g>
 </g>
</svg>
