<?xml version="1.0" standalone="no"?>
<!DOCTYPE svg PUBLIC "-//W3C//DTD SVG 1.1//EN" "http://www.w3.org/Graphics/SVG/1.1/DTD/svg11.dtd">
<!--Generator: Xara Designer (www.xara.com), SVG filter version: 6.6.0.8-->
<svg fill="none" fill-rule="evenodd" stroke="black" stroke-width="0.501" stroke-linejoin="bevel" stroke-miterlimit="10" font-family="Times New Roman" font-size="16" style="font-variant-ligatures:none" xmlns:xlink="http://www.w3.org/1999/xlink" xmlns="http://www.w3.org/2000/svg" version="1.1" overflow="visible" width="450pt" height="450pt" viewBox="0 -450 450 450">
 <g id="Layer 1" transform="scale(1 -1)">
  <path d="M 157.428,245.107 L 157.428,275.75 C 157.428,283.406 154.382,289.798 148.34,294.908 C 142.265,300.018 135.091,302.564 126.785,302.564 C 118.496,302.564 111.322,300.018 105.247,294.908 C 99.172,289.798 96.143,283.406 96.143,275.75 L 96.143,245.107 L 157.428,245.107 Z M 183.277,245.107 C 189.651,245.107 195.41,242.561 200.504,237.451 C 205.613,232.341 208.177,226.299 208.177,219.259 L 208.177,147.454 C 208.177,141.063 205.447,135.321 200.038,130.211 C 194.611,125.101 188.386,122.554 181.362,122.554 L 69.345,122.554 C 62.97,122.554 57.211,125.267 52.101,130.693 C 47.008,136.119 44.445,142.361 44.445,149.368 L 44.445,221.189 C 44.445,227.564 47.008,233.14 52.101,237.934 C 57.211,242.727 62.97,245.107 69.345,245.107 L 69.345,275.75 C 69.345,289.781 75.237,301.932 87.055,312.135 C 98.856,322.338 112.105,327.448 126.785,327.448 C 141.482,327.448 154.565,322.338 166.05,312.135 C 177.551,301.932 183.277,289.781 183.277,275.75 L 183.277,245.107 Z M 350.82,450.001 C 361.689,450.001 371.276,445.856 379.565,437.568 C 387.854,429.262 391.998,419.691 391.998,408.839 L 391.998,41.163 C 391.998,30.327 387.854,20.757 379.565,12.451 C 371.276,4.145 361.689,0.001 350.82,0.001 L 146.892,0.001 C 136.04,0.001 126.469,4.145 118.163,12.451 C 109.874,20.757 105.713,30.327 105.713,41.163 L 105.713,102.448 L 146.892,102.448 L 146.892,61.286 L 350.82,61.286 L 350.82,388.733 L 146.892,388.733 L 146.892,347.571 L 105.713,347.571 L 105.713,408.839 C 105.713,419.691 109.874,429.262 118.163,437.568 C 126.469,445.856 136.04,450.001 146.892,450.001 L 350.82,450.001 Z" fill="#fff" stroke-linecap="round" stroke-linejoin="miter" fill-rule="nonzero" stroke-width="6.491" stroke="none" marker-start="none" marker-end="none"/>
 </g>
</svg>
