<svg width="600" height="600" viewBox="0 0 600 600" fill="none" xmlns="http://www.w3.org/2000/svg">
<g clip-path="url(#clip0_391_1790)">
<path fill-rule="evenodd" clip-rule="evenodd" d="M0 600H600V445.508H364.065V432.072H600V276.267L549.884 266.579L549.888 231.764H534.411C540.941 216.409 538.145 197.955 525.86 185.184C509.469 168.143 482.349 167.641 465.337 184.063C452.183 196.755 448.9 215.872 455.664 231.764H440.191L440.373 245.791L423.3 242.548L423.303 79.896H412.597V22.3253H394.309V79.896H383.599L383.596 235.012L371.559 232.725L371.563 79.896H360.856V22.3253H342.568V79.896H331.859L331.856 225.188L175.443 195.495L0.190667 291.405L0 600ZM107.505 323.272V291.829H57.5693V323.272H107.505ZM107.508 339.209V370.649H57.5723V339.209H107.508ZM107.511 416.613V385.173H57.5752V416.613H107.511ZM341.055 399.159V599.999H141.996V399.159H341.055ZM341.054 331.148V291.828H142.004V331.148H341.054ZM341.055 344.127V351.785H142V344.127H341.055ZM364.062 412.597H599.995V399.161H364.062V412.597ZM364.062 479.809H599.998V466.371H364.062V479.809ZM572.222 332.919V370.647H512.299V332.919H572.222ZM492.957 370.649V332.921H433.035V370.649H492.957Z" fill="white"/>
</g>
<defs>
<clipPath id="clip0_391_1790">
<rect width="600" height="600" fill="white"/>
</clipPath>
</defs>
</svg>
