<?xml version="1.0" standalone="no"?>
<!DOCTYPE svg PUBLIC "-//W3C//DTD SVG 1.1//EN" "http://www.w3.org/Graphics/SVG/1.1/DTD/svg11.dtd">
<!--Generator: Xara Designer (www.xara.com), SVG filter version: 6.6.0.8-->
<svg fill="none" fill-rule="evenodd" stroke="black" stroke-width="0.501" stroke-linejoin="bevel" stroke-miterlimit="10" font-family="Times New Roman" font-size="16" style="font-variant-ligatures:none" xmlns:xlink="http://www.w3.org/1999/xlink" xmlns="http://www.w3.org/2000/svg" version="1.1" overflow="visible" width="450pt" height="450pt" viewBox="0 -450 450 450">
 <g id="Layer 1" transform="scale(1 -1)">
  <path d="M 360.297,225.846 C 360.13,274.866 347.835,319.312 323.417,359.184 C 299.014,399.04 266.419,428.944 225.665,448.897 C 252.211,428.401 273.648,398.093 289.961,357.956 C 306.294,317.82 314.537,273.726 314.714,225.69 L 135.29,225.06 C 135.133,273.08 143.045,317.237 159.078,357.482 C 175.108,397.745 196.319,428.21 222.731,448.899 C 182.1,428.653 149.745,398.507 125.629,358.464 C 101.512,318.437 89.538,273.906 89.705,224.886 L 0.002,224.563 C -0.232,286.321 21.532,339.226 65.248,383.262 C 108.966,427.299 161.694,449.425 223.469,449.627 C 223.955,450.125 224.438,450.121 224.918,449.635 C 293.546,449.875 350.019,424.104 394.335,372.3 C 431.242,329.797 449.802,281.093 450,226.187 L 360.297,225.846 Z M 202.288,202.505 L 247.872,202.661 L 247.872,0.452 L 203.009,1.007 L 202.288,202.505 Z" fill="#fff" stroke-linecap="round" stroke-linejoin="round" fill-rule="nonzero" stroke-width="6.522" stroke="none" marker-start="none" marker-end="none"/>
 </g>
</svg>
