<?xml version="1.0" standalone="no"?>
<!DOCTYPE svg PUBLIC "-//W3C//DTD SVG 1.1//EN" "http://www.w3.org/Graphics/SVG/1.1/DTD/svg11.dtd">
<!--Generator: Xara Designer (www.xara.com), SVG filter version: 6.6.0.8-->
<svg fill="none" fill-rule="evenodd" stroke="black" stroke-width="0.501" stroke-linejoin="bevel" stroke-miterlimit="10" font-family="Times New Roman" font-size="16" style="font-variant-ligatures:none" xmlns:xlink="http://www.w3.org/1999/xlink" xmlns="http://www.w3.org/2000/svg" version="1.1" overflow="visible" width="450pt" height="450pt" viewBox="0 -450 450 450">
 <g id="Layer 1" transform="scale(1 -1)">
  <path d="M 158.348,19.126 L 157.918,144.126 C 157.525,156.853 159.599,168.775 165.971,179.278 L 196.899,256.4 C 203.327,265.632 213.812,272.286 236.293,271.22 L 373.57,270.379 C 386.465,271.37 399.061,270.397 409.58,255.971 L 444.321,171.653 C 447.479,163.225 449.273,155.208 449.815,147.547 L 449.74,145.977 L 449.815,147.528 L 449.796,144.314 L 449.815,147.528 C 450.077,143.847 450.058,140.259 449.778,136.763 L 449.404,17.445 C 449.366,8.998 446.732,3.149 438.809,2.607 L 396.033,2.195 C 385.848,4.157 382.091,10.418 382.037,19.126 L 382.465,46.242 L 225.286,46.242 L 225.286,17.445 C 223.809,9.745 221.136,3.878 215.12,3.037 L 168.084,2.195 C 161.375,4.383 158.348,10.232 158.348,19.126 Z M 228.238,92.848 C 239.002,102.903 239.581,119.814 229.508,130.559 C 219.455,141.305 202.562,141.884 191.817,131.831 C 181.071,121.777 180.492,104.883 190.545,94.119 C 200.6,83.374 217.493,82.795 228.238,92.848 Z M 416.365,92.848 C 427.111,102.903 427.69,119.814 417.635,130.559 C 407.582,141.305 390.669,141.884 379.924,131.831 C 369.179,121.777 368.599,104.883 378.654,94.119 C 388.707,83.374 405.62,82.795 416.365,92.848 Z M 449.778,136.763 L 449.778,138.427 L 449.815,147.528 L 448.993,130.559 C 449.33,132.597 449.61,134.67 449.778,136.763 Z M 410.01,161.487 L 383.306,224.203 C 380.093,232.145 373.589,235.882 364.246,236.068 L 243.506,236.068 C 232.406,237.003 226.967,233.285 224.856,227.155 L 194.769,161.487 L 410.01,161.487 Z" fill="#fff" stroke-linejoin="miter" stroke="none" marker-start="none" marker-end="none"/>
  <path d="M 99.631,46.672 L 39.066,48.391 C 26.264,46.373 21.293,53.774 23.106,69.171 L 23.891,98.043 C 6.624,108.994 -0.777,124.916 0.065,144.911 L 0.85,271.481 L 19.929,382.691 C 24.097,401.173 31.871,418.328 57.267,428.774 C 122.392,452.358 214.858,462.542 307.23,425.877 C 323.077,418.009 334.963,404.836 340.325,382.97 L 355.145,294.261 L 313.583,295.046 L 303.792,355.687 C 299.475,380.579 283.739,397.005 252.401,405.209 C 199.31,416.795 149.508,414.776 102.004,403.359 C 78.291,395.38 59.023,384.522 57.79,362.041 L 45.083,272.809 L 179.594,271.481 L 145.435,185.688 C 137.473,168.832 134.296,150.144 135.38,129.812 L 134.577,92.214 L 112.6,91.952 L 112.862,58.575 C 111.909,51.867 107.554,47.812 99.631,46.672 Z M 89.876,194.116 C 101.332,207.215 100.005,227.155 86.905,238.611 C 73.805,250.047 53.866,248.721 42.41,235.639 C 30.973,222.54 32.301,202.599 45.381,191.144 C 58.482,179.69 78.42,181.016 89.876,194.116 Z" fill="#fff" stroke-linejoin="miter" stroke="none" marker-start="none" marker-end="none"/>
 </g>
</svg>
