<?xml version="1.0" standalone="no"?>
<!DOCTYPE svg PUBLIC "-//W3C//DTD SVG 1.1//EN" "http://www.w3.org/Graphics/SVG/1.1/DTD/svg11.dtd">
<!--Generator: Xara Designer (www.xara.com), SVG filter version: 6.6.0.8-->
<svg fill="none" fill-rule="evenodd" stroke="black" stroke-width="0.501" stroke-linejoin="bevel" stroke-miterlimit="10" font-family="Times New Roman" font-size="16" style="font-variant-ligatures:none" xmlns:xlink="http://www.w3.org/1999/xlink" xmlns="http://www.w3.org/2000/svg" version="1.1" overflow="visible" width="450pt" height="450pt" viewBox="0 -450 450 450">
 <g id="Layer 1" transform="scale(1 -1)">
  <path d="M 321.43,173.385 L 321.43,221.581 C 321.43,223.946 320.69,225.85 319.165,227.374 C 317.663,228.88 315.737,229.639 313.391,229.639 L 257.137,229.639 L 257.137,285.874 C 257.137,288.22 256.393,290.146 254.891,291.648 C 253.389,293.15 251.444,293.913 249.117,293.913 L 200.902,293.913 C 198.556,293.913 196.633,293.15 195.109,291.648 C 193.607,290.146 192.863,288.22 192.863,285.874 L 192.863,229.639 L 136.609,229.639 C 134.263,229.639 132.337,228.88 130.835,227.374 C 129.333,225.85 128.57,223.946 128.57,221.581 L 128.57,173.385 C 128.57,171.02 129.333,169.116 130.835,167.61 C 132.337,166.09 134.263,165.346 136.609,165.346 L 192.863,165.346 L 192.863,109.092 C 192.863,106.746 193.607,104.82 195.109,103.318 C 196.633,101.816 198.556,101.072 200.902,101.072 L 249.117,101.072 C 251.444,101.072 253.389,101.816 254.891,103.318 C 256.393,104.82 257.137,106.746 257.137,109.092 L 257.137,165.346 L 313.391,165.346 C 315.737,165.346 317.663,166.09 319.165,167.61 C 320.69,169.116 321.43,171.02 321.43,173.385 Z M 160.707,358.209 L 289.293,358.209 L 289.293,390.346 L 160.707,390.346 L 160.707,358.209 Z M 64.274,358.209 L 64.274,36.757 L 56.257,36.757 C 40.838,36.757 27.627,42.294 16.58,53.337 C 5.537,64.406 0,77.617 0,93.014 L 0,301.952 C 0,317.349 5.537,330.582 16.58,341.629 C 27.627,352.676 40.838,358.209 56.257,358.209 L 64.274,358.209 Z M 361.606,358.209 L 361.606,36.757 L 88.394,36.757 L 88.394,358.209 L 128.57,358.209 L 128.57,398.385 C 128.57,405.059 130.917,410.752 135.605,415.463 C 140.276,420.137 145.972,422.483 152.669,422.483 L 297.313,422.483 C 304.01,422.483 309.725,420.137 314.395,415.463 C 319.084,410.752 321.43,405.059 321.43,398.385 L 321.43,358.209 L 361.606,358.209 Z M 450,301.952 L 450,93.014 C 450,77.617 444.486,64.406 433.42,53.337 C 422.373,42.294 409.14,36.757 393.765,36.757 L 385.704,36.757 L 385.704,358.209 L 393.765,358.209 C 409.14,358.209 422.373,352.676 433.42,341.629 C 444.486,330.582 450,317.349 450,301.952 Z" fill="#fff" stroke-linecap="round" stroke-linejoin="miter" fill-rule="nonzero" stroke-width="7.82" stroke="none" marker-start="none" marker-end="none"/>
 </g>
</svg>
