<?xml version="1.0" standalone="no"?>
<!DOCTYPE svg PUBLIC "-//W3C//DTD SVG 1.1//EN" "http://www.w3.org/Graphics/SVG/1.1/DTD/svg11.dtd">
<!--Generator: Xara Designer (www.xara.com), SVG filter version: 6.6.0.8-->
<svg fill="none" fill-rule="evenodd" stroke="black" stroke-width="0.501" stroke-linejoin="bevel" stroke-miterlimit="10" font-family="Times New Roman" font-size="16" style="font-variant-ligatures:none" xmlns:xlink="http://www.w3.org/1999/xlink" xmlns="http://www.w3.org/2000/svg" version="1.1" overflow="visible" width="450pt" height="450pt" viewBox="0 -450 450 450">
 <g id="Layer 1" transform="scale(1 -1)">
  <path d="M 26.559,191.963 C 28.636,187.808 32.313,185.731 37.514,185.731 C 42.715,185.731 46.332,187.808 48.409,191.963 C 50.502,196.133 50.502,200.288 48.409,204.458 C 46.332,208.628 42.715,210.705 37.514,210.705 C 32.313,210.705 28.636,208.628 26.559,204.458 C 24.481,200.288 24.481,196.133 26.559,191.963 Z M 325.234,197.03 C 323.888,198.749 321.407,201.977 317.686,206.834 C 313.979,211.632 311.244,215.159 309.555,217.341 C 307.882,219.568 305.401,222.736 302.127,226.891 C 298.914,231.106 296.134,234.529 293.848,237.249 C 291.576,240.029 288.945,243.063 285.926,246.47 C 282.952,249.848 280.023,253.016 277.153,256.035 L 252.717,228.685 C 241.926,216.444 228.341,210.451 211.99,210.705 C 195.684,210.989 182.308,217.341 171.846,229.88 C 164.463,238.848 160.801,249.145 160.846,260.699 C 160.891,272.296 164.717,282.504 172.249,291.367 L 206.834,331.616 C 203.964,333.051 200.646,334.127 196.88,334.829 C 193.113,335.577 189.99,335.98 187.613,336.025 C 185.177,336.07 181.516,336.025 176.569,335.92 C 171.607,335.771 168.423,335.726 166.988,335.726 C 155.002,335.726 144.749,331.407 136.126,322.843 L 105.263,291.965 L 75.013,291.965 L 75.013,185.731 C 75.67,185.731 77.015,185.776 79.093,185.821 C 81.17,185.88 82.605,185.88 83.397,185.821 C 84.189,185.776 85.43,185.626 87.223,185.417 C 88.942,185.238 90.287,184.924 91.229,184.535 C 92.125,184.132 93.261,183.594 94.651,182.906 C 95.981,182.159 97.222,181.307 98.268,180.276 L 156.242,123.228 C 171.203,108.76 186.029,101.542 200.601,101.542 C 210.749,101.542 218.88,104.606 225.023,110.688 C 232.406,108.118 239.744,108.611 246.978,112.288 C 254.212,115.905 258.919,121.449 261.146,128.877 C 270.756,128.085 279.036,130.97 285.926,137.456 C 288.557,139.833 290.873,142.762 292.951,146.379 C 295.043,149.951 295.985,153.224 295.686,156.243 C 297.016,154.898 299.796,154.255 304.115,154.255 C 309.705,154.255 314.712,155.645 319.121,158.365 C 323.59,161.1 326.803,164.568 328.791,168.723 C 330.823,172.892 331.6,177.556 331.167,182.697 C 330.719,187.853 328.701,192.606 325.234,197.03 Z M 356.246,185.731 L 375.033,185.731 L 375.033,285.718 L 356.844,285.718 L 326.16,320.855 C 317.596,330.764 306.596,335.726 293.16,335.726 L 260.549,335.726 C 248.966,335.726 239.445,331.362 232.002,322.648 L 191.215,275.166 C 187.569,270.862 185.715,266.004 185.715,260.504 C 185.715,255.049 187.509,250.192 191.036,245.887 C 196.626,239.236 203.755,235.814 212.498,235.724 C 221.211,235.575 228.445,238.788 234.184,245.289 L 271.907,287.855 C 275.121,290.874 278.588,292.264 282.309,292.07 C 286.016,291.86 289.095,290.142 291.516,286.824 C 293.907,283.491 294.445,279.784 293.16,275.764 C 295.238,273.283 298.914,269.173 304.115,263.478 C 309.316,257.724 313.232,253.315 315.803,250.192 C 319.629,245.484 324.979,238.594 331.914,229.582 C 338.894,220.51 343.109,215.009 344.558,213.067 C 351.284,204.458 355.2,195.341 356.246,185.731 Z M 401.576,191.963 C 403.669,187.808 407.285,185.731 412.487,185.731 C 417.733,185.731 421.364,187.808 423.442,191.963 C 425.519,196.133 425.519,200.288 423.442,204.458 C 421.364,208.628 417.733,210.705 412.487,210.705 C 407.285,210.705 403.669,208.628 401.576,204.458 C 399.499,200.288 399.499,196.133 401.576,191.963 Z M 450,298.212 L 450,173.236 C 450,169.814 448.76,166.884 446.279,164.418 C 443.798,161.937 440.868,160.697 437.506,160.697 L 352.719,160.697 C 349.206,152.267 343.901,145.333 336.712,139.937 C 329.583,134.542 321.407,131.164 312.276,129.879 C 308.031,123.587 302.77,118.281 296.583,113.932 C 290.38,109.553 283.744,106.638 276.555,105.054 C 271.115,98.164 264.33,92.858 256.14,89.152 C 248.009,85.43 239.639,83.831 231.076,84.339 C 223.244,79.93 215.009,77.36 206.43,76.657 C 197.866,75.925 189.541,76.792 181.56,79.392 C 173.535,81.903 165.912,85.37 158.664,89.839 C 151.49,94.248 144.749,99.509 138.502,105.652 L 82.411,160.697 L 12.495,160.697 C 9.117,160.697 6.188,161.937 3.721,164.418 C 1.24,166.884 0,169.814 0,173.236 L 0,304.445 C 0,307.867 1.24,310.797 3.721,313.278 C 6.188,315.759 9.117,316.984 12.495,316.984 L 94.741,316.984 C 96.519,318.778 99.598,321.901 103.918,326.355 C 108.222,330.764 111.301,333.888 113.169,335.726 C 115.067,337.549 117.937,340.135 121.748,343.558 C 125.619,346.92 128.892,349.342 131.657,350.836 C 134.392,352.375 137.71,354.005 141.626,355.843 C 145.496,357.666 149.562,358.907 153.717,359.654 C 157.886,360.342 162.28,360.7 166.988,360.7 L 189.84,360.7 C 202.724,360.7 214.516,357.083 225.217,349.805 C 235.873,357.083 247.665,360.7 260.549,360.7 L 293.16,360.7 C 297.718,360.7 302.083,360.342 306.238,359.564 C 310.407,358.772 314.129,357.831 317.297,356.74 C 320.466,355.589 323.844,353.87 327.356,351.524 C 330.868,349.207 333.738,347.159 336.024,345.486 C 338.311,343.797 341.136,341.226 344.454,337.759 C 347.772,334.336 350.283,331.616 352.076,329.583 C 353.81,327.551 356.485,324.427 360.057,320.212 C 363.629,315.953 366.349,312.784 368.187,310.692 L 437.506,310.692 C 440.868,310.692 443.798,309.466 446.279,307.03 C 448.76,304.549 450,301.575 450,298.212 Z" fill="#fff" fill-rule="nonzero" stroke-linejoin="round" stroke-linecap="round" stroke="none" stroke-width="4.319" marker-start="none" marker-end="none"/>
 </g>
</svg>
