<?xml version="1.0" standalone="no"?>
<!DOCTYPE svg PUBLIC "-//W3C//DTD SVG 1.1//EN" "http://www.w3.org/Graphics/SVG/1.1/DTD/svg11.dtd">
<!--Generator: Xara Designer (www.xara.com), SVG filter version: 6.6.0.8-->
<svg fill="none" fill-rule="evenodd" stroke="black" stroke-width="0.501" stroke-linejoin="bevel" stroke-miterlimit="10" font-family="Times New Roman" font-size="16" style="font-variant-ligatures:none" xmlns:xlink="http://www.w3.org/1999/xlink" xmlns="http://www.w3.org/2000/svg" version="1.1" overflow="visible" width="450pt" height="450pt" viewBox="0 -450 450 450">
 <g id="Layer 1" transform="scale(1 -1)">
  <path d="M 133.048,24.045 L 133.048,196.146 L 137.116,281.194 L 132.704,281.194 L 114.181,176.395 C 114.108,162.06 84.643,153.5 83.754,182.226 L 98.225,297.563 C 98.225,309.928 102.927,320.814 112.362,330.233 C 121.797,339.667 132.758,344.385 145.094,344.385 C 168.329,336.873 191.581,336.354 214.817,344.385 C 227.183,344.385 238.067,339.667 247.488,330.233 C 249.991,327.713 252.158,325.118 253.991,322.401 C 255.396,321.592 256.601,320.569 257.655,319.333 C 274.265,309.622 292.509,309.012 312.34,318.203 C 313.745,320.233 315.653,321.882 318.004,322.95 L 318.049,322.89 C 326.171,326.508 336.553,321.195 341.194,311.165 L 389.162,205.84 C 393.787,195.84 390.857,184.65 382.765,181.062 L 382.765,181.139 C 374.643,177.505 364.262,182.773 359.559,192.772 L 333.026,251.029 L 347.529,127.003 L 317.484,127.003 L 317.484,40.869 C 316.783,23.51 317.912,4.626 299.165,0 L 268.738,0 C 265.715,0.809 263.212,1.939 261.136,3.313 C 261.608,4.382 262.005,5.481 262.326,6.58 C 263.944,12.244 263.884,19.099 264.066,23.465 L 264.066,64.532 L 282.554,64.532 L 278.463,99.462 L 281.41,97.218 C 285.852,94.882 291.15,94.226 296.509,96.592 C 307.333,101.355 308.676,114.256 304.722,122.82 L 276.967,183.749 C 274.509,189.032 269.502,193.978 263.365,195.78 L 265.258,198.192 C 269.059,203.825 270.998,210.298 270.998,217.504 C 270.998,227.061 267.532,235.427 260.754,242.007 C 253.929,248.511 245.578,251.716 236.159,251.716 C 226.755,251.716 218.358,248.511 211.626,241.991 C 204.786,235.442 201.336,227.061 201.336,217.504 C 201.336,210.298 203.275,203.81 207.077,198.176 L 209.245,195.55 L 206.252,194.329 C 201.794,191.993 198.191,187.993 196.237,183.749 L 179.993,148.102 L 175.627,138.484 L 168.482,122.82 C 164.65,114.531 165.765,102.256 175.596,97.096 L 175.627,24.045 C 175.627,10.793 166.086,0 154.346,0 L 154.331,0 C 142.59,0 133.048,10.793 133.048,24.045 Z M 184.206,24.045 L 184.206,95.112 C 185.611,95.172 186.985,95.416 188.314,95.813 L 190.939,96.867 L 186.588,66.456 L 207.687,65.097 L 207.687,23.572 C 207.824,20.854 207.489,13.236 208.71,7.847 C 209.26,5.45 210.13,3.114 211.412,0.931 C 209.535,0.306 207.55,0 205.504,0 L 205.489,0 C 193.733,0 184.206,10.793 184.206,24.045 Z M 253.014,344.263 C 244.357,352.934 239.976,363.453 239.976,375.941 C 239.976,388.414 244.357,398.81 253.014,407.192 C 261.655,415.498 272.235,419.603 284.723,419.603 C 297.21,419.603 307.79,415.498 316.493,407.192 C 325.088,398.81 329.469,388.414 329.469,375.941 C 329.469,363.453 325.088,352.934 316.493,344.263 C 307.79,335.576 297.21,331.241 284.723,331.241 C 272.235,331.241 261.655,335.576 253.014,344.263 Z M 146.086,371.056 C 137.002,380.14 132.468,391.162 132.468,404.261 C 132.468,417.329 137.002,428.23 146.086,436.978 C 154.595,445.307 167.445,450.003 179.352,450 C 192.435,450 203.458,445.694 212.558,436.978 C 221.656,428.23 226.19,417.329 226.19,404.261 C 226.19,391.162 221.656,380.14 212.558,371.056 C 203.458,361.956 192.435,357.453 179.352,357.453 C 166.268,357.453 155.2,361.956 146.086,371.056 Z" fill="#fff" stroke-linecap="round" stroke-linejoin="miter" stroke-width="6.518" stroke="none" marker-start="none" marker-end="none"/>
  <path d="M 216.634,24.045 L 216.634,73.463 L 196.817,74.761 L 205.932,138.346 L 193.733,111.538 C 191.032,105.752 185.017,102.699 180.329,104.79 L 180.329,104.76 C 175.627,106.836 173.947,113.294 176.62,119.08 L 204.374,180.009 C 207.046,185.825 213.061,188.91 217.748,186.818 L 217.809,186.849 C 218.862,186.345 219.763,185.643 220.511,184.741 C 230.129,179.123 240.678,178.773 252.143,184.101 C 252.953,185.26 254.067,186.222 255.426,186.849 L 255.441,186.818 C 260.143,188.91 266.158,185.825 268.846,180.009 L 296.6,119.08 C 299.271,113.294 297.577,106.836 292.906,104.76 L 292.906,104.79 C 288.203,102.699 282.188,105.752 279.471,111.538 L 264.112,145.247 L 272.509,73.463 L 255.136,73.463 L 255.136,23.648 C 254.724,13.603 255.365,2.671 244.525,0 L 226.923,0 C 214.892,3.298 217.106,14.915 216.634,24.045 Z M 217.824,199.184 C 212.817,204.191 210.282,210.283 210.282,217.504 C 210.282,224.725 212.817,230.74 217.824,235.564 C 222.817,240.373 228.954,242.771 236.159,242.771 C 243.38,242.771 249.518,240.373 254.54,235.564 C 259.533,230.74 262.051,224.725 262.051,217.504 C 262.051,210.283 259.533,204.191 254.54,199.184 C 249.518,194.146 243.38,191.642 236.159,191.642 C 228.954,191.642 222.817,194.146 217.824,199.184 Z" fill="#fff" stroke-linejoin="miter" stroke="none" stroke-width="3.77" stroke-linecap="round" marker-start="none" marker-end="none"/>
 </g>
</svg>
