<?xml version="1.0" standalone="no"?>
<!DOCTYPE svg PUBLIC "-//W3C//DTD SVG 1.1//EN" "http://www.w3.org/Graphics/SVG/1.1/DTD/svg11.dtd">
<!--Generator: Xara Designer (www.xara.com), SVG filter version: 6.6.0.8-->
<svg fill="none" fill-rule="evenodd" stroke="black" stroke-width="0.501" stroke-linejoin="bevel" stroke-miterlimit="10" font-family="Times New Roman" font-size="16" style="font-variant-ligatures:none" xmlns:xlink="http://www.w3.org/1999/xlink" xmlns="http://www.w3.org/2000/svg" version="1.1" overflow="visible" width="450pt" height="450pt" viewBox="0 -450 450 450">
 <g id="Layer 1" transform="scale(1 -1)">
  <g id="Group" fill="#fff" fill-rule="nonzero" stroke-linejoin="round" stroke-linecap="round" stroke="none" stroke-width="6.623">
   <g id="Group_1">
    <path d="M 295.251,123.083 C 274.489,108.646 251.065,101.405 225.022,101.405 C 198.935,101.405 175.532,108.646 154.749,123.083 C 133.986,137.499 119.016,156.346 109.859,179.578 L 340.141,179.578 C 330.984,156.346 316.014,137.499 295.251,123.083 Z M 169.549,257.218 C 162.862,250.532 154.941,247.188 145.783,247.188 C 136.627,247.188 128.706,250.532 122.019,257.218 C 115.311,263.905 111.968,271.826 111.968,280.984 C 111.968,290.14 115.311,298.062 122.019,304.749 C 128.706,311.434 136.627,314.799 145.783,314.799 C 154.941,314.799 162.862,311.434 169.549,304.749 C 176.235,298.062 179.578,290.14 179.578,280.984 C 179.578,271.826 176.235,263.905 169.549,257.218 Z M 327.981,257.218 C 321.294,250.532 313.394,247.188 304.238,247.188 C 295.08,247.188 287.159,250.532 280.473,257.218 C 273.765,263.905 270.422,271.826 270.422,280.984 C 270.422,290.14 273.765,298.062 280.473,304.749 C 287.159,311.434 295.08,314.799 304.238,314.799 C 313.394,314.799 321.294,311.434 327.981,304.749 C 334.689,298.062 338.032,290.14 338.032,280.984 C 338.032,271.826 334.689,263.905 327.981,257.218 Z M 97.722,97.701 C 133.284,62.16 175.724,44.356 225.022,44.356 C 274.298,44.356 316.716,62.16 352.299,97.701 C 387.861,133.284 405.644,175.724 405.644,224.999 C 405.644,274.298 387.861,316.716 352.299,352.278 C 316.716,387.861 274.298,405.644 225.022,405.644 C 175.724,405.644 133.284,387.861 97.722,352.278 C 62.16,316.716 44.356,274.298 44.356,224.999 C 44.356,175.724 62.16,133.284 97.722,97.701 Z M 66.036,383.964 C 110.052,428.003 163.032,450 225.022,450 C 286.968,450 339.969,428.003 383.987,383.964 C 428.003,339.969 450,286.968 450,224.999 C 450,163.032 428.003,110.031 383.987,66.013 C 339.969,22.018 286.968,0 225.022,0 C 163.032,0 110.052,22.018 66.036,66.013 C 22.018,110.031 0,163.032 0,224.999 C 0,286.968 22.018,339.969 66.036,383.964 Z" marker-start="none" marker-end="none"/>
   </g>
  </g>
 </g>
</svg>
